# Blender v2.82 (sub 7) OBJ File: ''
# www.blender.org
mtllib cube.mtl
o Torus
v 1.250000 0.000000 0.000000
v 1.000000 0.250000 0.000000
v 0.750000 0.000000 0.000000
v 1.000000 -0.250000 0.000000
v 0.000000 0.000000 -1.250000
v 0.000000 0.250000 -1.000000
v 0.000000 0.000000 -0.750000
v 0.000000 -0.250000 -1.000000
v -1.250000 0.000000 -0.000000
v -1.000000 0.250000 -0.000000
v -0.750000 0.000000 -0.000000
v -1.000000 -0.250000 -0.000000
v 0.000000 0.000000 1.250000
v 0.000000 0.250000 1.000000
v 0.000000 0.000000 0.750000
v 0.000000 -0.250000 1.000000
vt 0.500000 0.500000
vt 0.750000 0.750000
vt 0.500000 0.750000
vt 0.500000 1.000000
vt 0.750000 0.000000
vt 0.500000 0.250000
vt 0.500000 0.000000
vt 0.750000 0.500000
vt 1.000000 0.500000
vt 1.000000 0.750000
vt 0.750000 1.000000
vt 1.000000 0.000000
vt 0.750000 0.250000
vt 1.000000 0.250000
vt 0.250000 0.500000
vt 0.000000 0.750000
vt 0.000000 0.500000
vt 0.250000 0.750000
vt 0.000000 1.000000
vt 0.250000 0.000000
vt 0.000000 0.250000
vt 0.000000 0.000000
vt 0.250000 0.250000
vt 0.250000 1.000000
vt 1.000000 1.000000
vn 0.5774 0.5774 -0.5774
vn -0.5774 0.5774 0.5774
vn -0.5774 -0.5774 0.5774
vn 0.5774 -0.5774 -0.5774
vn -0.5774 0.5774 -0.5774
vn 0.5774 0.5774 0.5774
vn 0.5774 -0.5774 0.5774
vn -0.5774 -0.5774 -0.5774
usemtl None
s off
f 1/1/1 6/2/1 2/3/1
f 6/2/2 3/4/2 2/3/2
f 7/5/3 4/6/3 3/7/3
f 4/6/4 5/8/4 1/1/4
f 9/9/5 6/2/5 5/8/5
f 10/10/6 7/11/6 6/2/6
f 11/12/7 8/13/7 7/5/7
f 12/14/8 5/8/8 8/13/8
f 13/15/2 10/16/2 9/17/2
f 14/18/1 11/19/1 10/16/1
f 15/20/4 12/21/4 11/22/4
f 16/23/3 9/17/3 12/21/3
f 1/1/6 14/18/6 13/15/6
f 14/18/5 3/4/5 15/24/5
f 3/7/8 16/23/8 15/20/8
f 4/6/7 13/15/7 16/23/7
f 1/1/1 5/8/1 6/2/1
f 6/2/2 7/11/2 3/4/2
f 7/5/3 8/13/3 4/6/3
f 4/6/4 8/13/4 5/8/4
f 9/9/5 10/10/5 6/2/5
f 10/10/6 11/25/6 7/11/6
f 11/12/7 12/14/7 8/13/7
f 12/14/8 9/9/8 5/8/8
f 13/15/2 14/18/2 10/16/2
f 14/18/1 15/24/1 11/19/1
f 15/20/4 16/23/4 12/21/4
f 16/23/3 13/15/3 9/17/3
f 1/1/6 2/3/6 14/18/6
f 14/18/5 2/3/5 3/4/5
f 3/7/8 4/6/8 16/23/8
f 4/6/7 1/1/7 13/15/7
